<svg width="191" height="60" viewBox="0 0 191 60" fill="none" xmlns="http://www.w3.org/2000/svg">
<path d="M25.6367 46.2018C26.5214 41.0303 30.5529 37.75 36.6626 37.75H52.5394C58.465 37.75 59.7238 33.9268 59.7238 33.9268C58.8391 39.0983 56.4285 42.3786 50.3188 42.3786H34.0323C27.2933 42.3786 25.6367 46.2018 25.6367 46.2018Z" fill="#DF2325"/>
<path d="M52.266 43.3651C50.9181 45.3554 49.3566 45.5305 46.3938 45.5305C43.431 45.5305 39.9516 45.5947 35.1363 45.5305C29.9529 45.4605 25.9511 47.7602 25.6245 52.7624C26.9723 50.772 28.7239 50.4102 31.6867 50.4102C34.6495 50.4102 36.4307 50.346 41.246 50.4102C46.4235 50.486 50.4728 48.2388 52.266 43.3651Z" fill="#EE4523"/>
<path d="M25.6362 56.9125C25.6362 54.9221 28.409 53.8539 31.7221 53.8539C35.0353 53.8539 41.4477 54.2859 44.173 52.3947C43.4308 54.5777 36.6621 59.5799 29.8993 59.5799C26.8356 59.5799 25.6362 58.1265 25.6362 56.9125Z" fill="#FE5F3E"/>
<path d="M13.6089 25.6917C18.8695 26.5614 22.2064 30.5246 22.2064 36.5308V52.1386C22.2064 57.9638 26.0954 59.2012 26.0954 59.2012C20.8348 58.3315 17.4979 55.9617 17.4979 49.9556V33.945C17.4979 27.3144 13.6089 25.6917 13.6089 25.6917Z" fill="#172C4F"/>
<path d="M16.4924 51.8636C14.4678 50.5386 14.2896 49.0035 14.2896 46.0909C14.2896 43.1783 14.2243 39.7579 14.2896 35.0242C14.3609 29.9286 12.0215 25.9946 6.93311 25.6735C8.95778 26.9985 9.32591 28.7204 9.32591 31.633C9.32591 34.5456 9.39122 36.2966 9.32591 41.0303C9.25466 46.1259 11.5346 50.1008 16.4924 51.8636Z" fill="#264A74"/>
<path d="M2.71936 25.6932C4.74404 25.6932 5.8306 28.4191 5.8306 31.676C5.8306 34.9272 5.39123 41.2368 7.31497 43.916C5.08841 43.1863 0 36.5323 0 29.8783C0 26.8664 1.48437 25.6932 2.71936 25.6932Z" fill="#345A87"/>
<path d="M34.4802 13.8655C33.5955 19.037 29.564 22.3173 23.4543 22.3173H7.57155C1.64595 22.3173 0.387207 26.1405 0.387207 26.1405C1.27189 20.969 3.68251 17.6887 9.79217 17.6887H26.0787C32.8236 17.6887 34.4802 13.8655 34.4802 13.8655Z" fill="#DF2325"/>
<path d="M7.8501 16.7022C9.1979 14.7119 10.7595 14.5368 13.7223 14.5368C16.6851 14.5368 20.1644 14.4725 24.9797 14.5368C30.1631 14.6068 34.165 12.3071 34.4915 7.30487C33.1437 9.29524 31.3922 9.65713 28.4294 9.65713C25.4666 9.65713 23.6853 9.72133 18.87 9.65713C13.6926 9.58125 9.64321 11.8284 7.8501 16.7022Z" fill="#EE4523"/>
<path d="M34.4811 3.15487C34.4811 5.14525 31.7083 6.2134 28.3952 6.2134C25.0821 6.2134 18.6696 5.78147 15.9443 7.67262C16.6865 5.48962 23.4552 0.487427 30.218 0.487427C33.2818 0.487427 34.4811 1.9408 34.4811 3.15487Z" fill="#FE5F3E"/>
<path d="M46.508 34.3758C41.2474 33.5061 37.9105 29.5429 37.9105 23.5367V7.92895C37.9105 2.10375 34.0215 0.866333 34.0215 0.866333C39.2821 1.73603 42.6189 4.1058 42.6189 10.1119V26.1225C42.6189 32.7532 46.508 34.3758 46.508 34.3758Z" fill="#172C4F"/>
<path d="M43.6226 8.20386C45.6472 9.52883 45.8254 11.0639 45.8254 13.9765C45.8254 16.8891 45.8907 20.3095 45.8254 25.0432C45.7541 30.1388 48.0935 34.0729 53.1819 34.3939C51.1572 33.0689 50.7891 31.347 50.7891 28.4344C50.7891 25.5218 50.7238 23.7708 50.7891 19.0371C50.8603 13.9415 48.5803 9.96659 43.6226 8.20386Z" fill="#264A74"/>
<path d="M57.3969 34.3763C55.3722 34.3763 54.2856 31.6505 54.2856 28.3935C54.2856 25.1424 54.725 18.8328 52.8013 16.1536C55.0219 16.8832 60.1103 23.5373 60.1103 30.1855C60.1162 33.2031 58.6319 34.3763 57.3969 34.3763Z" fill="#345A87"/>
<path d="M84.4851 6.83209V33.5241H95.1547V39.7054H76.3389V6.83209H84.4851Z" fill="#172C4F"/>
<path d="M119.547 13.2468H107.209V19.895H118.116V26.0763H107.209V33.2906H119.547V39.7054H99.0625V6.83209H119.547V13.2468Z" fill="#172C4F"/>
<path d="M145.655 33.8977H133.174L131.173 39.7054H122.647L134.748 6.83209H144.182L156.283 39.7054H147.662L145.655 33.8977ZM139.414 15.6808L135.318 27.7164H143.559L139.414 15.6808Z" fill="#172C4F"/>
<path d="M190.001 23.2687C190.001 33.0105 183.144 39.7054 172.474 39.7054H159.946V6.83209H172.474C183.144 6.83209 190.001 13.4803 190.001 23.2687ZM171.945 32.7712C178.091 32.7712 181.713 29.304 181.713 23.2629C181.713 17.2217 178.091 13.6612 171.945 13.6612H168.086V32.7653H171.945V32.7712Z" fill="#172C4F"/>
<path d="M115.467 51.5193H112.053L111.466 53.1594H110.07L112.992 45.1337H114.541L117.462 53.1594H116.055L115.467 51.5193ZM113.763 46.7214L112.427 50.4453H115.093L113.763 46.7214Z" fill="#172C4F"/>
<path d="M128.935 48.7371C128.935 51.2061 127.219 52.7178 124.607 52.7178H121.941V44.7038H124.607C127.219 44.698 128.935 46.2564 128.935 48.7371ZM124.607 51.6439C126.531 51.6439 127.564 50.5582 127.564 48.7371C127.564 46.9043 126.531 45.772 124.607 45.772H123.283V51.6439H124.607Z" fill="#172C4F"/>
<path d="M138.755 45.1395H140.163L137.099 53.1535H135.549L132.474 45.1395H133.905L136.321 51.8052L138.755 45.1395Z" fill="#172C4F"/>
<path d="M144.539 45.1395H145.874V53.1535H144.539V45.1395Z" fill="#172C4F"/>
<path d="M153.687 53.2351C152.054 53.2351 150.801 52.3596 150.801 50.9412H152.232C152.292 51.6008 152.761 52.1319 153.687 52.1319C154.625 52.1319 155.153 51.6358 155.153 50.9529C155.153 49.015 150.825 50.27 150.825 47.3165C150.825 45.9098 151.965 45.0343 153.627 45.0343C155.189 45.0343 156.293 45.8398 156.406 47.2173H154.928C154.88 46.6745 154.399 46.1783 153.556 46.155C152.784 46.1316 152.185 46.4994 152.185 47.2757C152.185 49.0851 156.501 47.9586 156.501 50.8887C156.501 52.0852 155.504 53.2351 153.687 53.2351Z" fill="#172C4F"/>
<path d="M165.047 53.2347C162.749 53.2347 160.879 51.542 160.879 49.1256C160.879 46.7266 162.743 45.0281 165.047 45.0281C167.369 45.0281 169.215 46.7208 169.215 49.1256C169.215 51.542 167.374 53.2347 165.047 53.2347ZM165.047 52.0965C166.668 52.0965 167.838 50.9408 167.838 49.1314C167.838 47.322 166.662 46.1896 165.047 46.1896C163.426 46.1896 162.256 47.322 162.256 49.1314C162.256 50.9408 163.432 52.0965 165.047 52.0965Z" fill="#172C4F"/>
<path d="M176.784 45.1395C178.72 45.1395 179.67 46.2369 179.67 47.5385C179.67 48.4841 179.153 49.4997 177.782 49.8324L179.8 53.1535H178.203L176.327 49.9491H175.306V53.1535H173.97V45.1395H176.784ZM176.784 46.2135H175.306V48.8985H176.784C177.829 48.8985 178.298 48.3323 178.298 47.5385C178.298 46.733 177.829 46.2135 176.784 46.2135Z" fill="#172C4F"/>
<path d="M187.187 53.2351C185.554 53.2351 184.301 52.3596 184.301 50.9412H185.732C185.792 51.6008 186.261 52.1319 187.187 52.1319C188.125 52.1319 188.653 51.6358 188.653 50.9529C188.653 49.015 184.325 50.27 184.325 47.3165C184.325 45.9098 185.465 45.0343 187.128 45.0343C188.689 45.0343 189.793 45.8398 189.906 47.2173H188.428C188.38 46.6745 187.899 46.1783 187.056 46.155C186.284 46.1316 185.685 46.4994 185.685 47.2757C185.685 49.0851 190.001 47.9586 190.001 50.8887C190.001 52.0852 189.004 53.2351 187.187 53.2351Z" fill="#172C4F"/>
</svg>
